<?xml version="1.0" standalone="no"?><!DOCTYPE svg PUBLIC "-//W3C//DTD SVG 1.1//EN" "http://www.w3.org/Graphics/SVG/1.1/DTD/svg11.dtd"><svg t="1732172327540" class="icon" viewBox="0 0 1024 1024" version="1.1" xmlns="http://www.w3.org/2000/svg" p-id="25264" xmlns:xlink="http://www.w3.org/1999/xlink" width="200" height="200"><path d="M510.855432 64.081481c-247.111051 0-447.430402 200.321398-447.430402 447.430402 0 247.110027 200.325491 447.439612 447.430402 447.439612 247.110027 0 447.439612-200.329585 447.439612-447.439612C958.295044 264.402879 757.965459 64.081481 510.855432 64.081481zM589.656149 225.282906l-41.451064 356.396059L473.518059 581.678966l-41.454134-356.396059L589.656149 225.282906zM510.314103 812.376185c-50.353828 0-79.903841-36.328393-79.903841-79.926354 0-46.715975 33.927717-80.97115 80.997756-80.97115 48.160883 0 79.899748 34.255175 79.899748 80.97115C591.308789 778.122033 559.569924 812.376185 510.314103 812.376185z" fill="#999999" p-id="25265"></path></svg>