<?xml version="1.0" standalone="no"?><!DOCTYPE svg PUBLIC "-//W3C//DTD SVG 1.1//EN" "http://www.w3.org/Graphics/SVG/1.1/DTD/svg11.dtd"><svg class="icon" width="200px" height="200.00px" viewBox="0 0 1024 1024" version="1.1" xmlns="http://www.w3.org/2000/svg"><path fill="#6181fd" d="M159.744 901.12c-40.96 0-77.824-36.864-77.824-77.824V200.704c0-40.96 36.864-77.824 77.824-77.824h704.512c40.96 0 77.824 36.864 77.824 77.824v622.592c0 45.056-36.864 77.824-77.824 77.824H159.744zM122.88 200.704v622.592c0 20.48 16.384 36.864 36.864 36.864h704.512c20.48 0 36.864-16.384 36.864-36.864V200.704c0-20.48-16.384-36.864-36.864-36.864H159.744c-20.48 0-36.864 16.384-36.864 36.864z m581.632 565.248c0-106.496-86.016-188.416-188.416-192.512h-8.192c-102.4 4.096-184.32 86.016-184.32 192.512 0 12.288-8.192 20.48-20.48 20.48s-24.576-8.192-24.576-20.48c0-94.208 57.344-180.224 147.456-217.088-40.96-28.672-61.44-73.728-61.44-118.784 0-81.92 65.536-143.36 143.36-143.36 81.92 0 143.36 65.536 143.36 143.36 0 49.152-24.576 90.112-61.44 118.784 90.112 32.768 151.552 122.88 151.552 217.088 0 12.288-8.192 20.48-20.48 20.48-8.192 0-16.384-8.192-16.384-20.48zM405.504 430.08c0 57.344 45.056 102.4 102.4 102.4h8.192c57.344-4.096 98.304-49.152 98.304-102.4 0-57.344-49.152-102.4-106.496-102.4-57.344 0-102.4 45.056-102.4 102.4z"  /></svg>